<svg version="1.1" id="Layer_1" xmlns="http://www.w3.org/2000/svg" xmlns:xlink="http://www.w3.org/1999/xlink" x="0px" y="0px"
	 width="100%" viewBox="0 0 2000 1500" enable-background="new 0 0 2000 1500" xml:space="preserve">
<path fill="#111111" opacity="1.000000" stroke="none" 
	d="
M1533.000000,1501.000000 
	C1022.000122,1501.000000 511.500305,1501.000000 1.000342,1501.000000 
	C1.000228,1001.000305 1.000228,501.000610 1.000114,1.000678 
	C667.666199,1.000452 1334.332397,1.000452 2000.998901,1.000226 
	C2000.999268,500.999359 2000.999268,1000.998718 2000.999634,1500.999023 
	C1845.166626,1501.000000 1689.333374,1501.000000 1533.000000,1501.000000 
M1319.115967,637.575439 
	C1319.115967,684.644958 1319.115967,731.714478 1319.115967,778.209839 
	C1312.867676,780.843567 1310.857422,778.017090 1308.998291,773.301331 
	C1291.149048,728.027954 1273.083618,682.839783 1255.077148,637.628418 
	C1249.805420,624.392212 1242.338257,619.181213 1228.021240,619.255493 
	C1223.902954,619.276855 1219.711548,619.903992 1215.687866,620.833923 
	C1202.400391,623.904846 1199.178223,628.091431 1199.177612,641.578552 
	C1199.174805,701.242310 1199.166748,760.906067 1199.207642,820.569824 
	C1199.209473,823.212769 1199.117310,826.080322 1200.072632,828.436157 
	C1201.063721,830.880432 1202.832153,833.598145 1205.028564,834.868713 
	C1218.190796,842.482361 1231.508789,834.904053 1231.510986,820.040894 
	C1231.517700,774.543091 1231.513550,729.045288 1231.513550,683.547485 
	C1231.513550,681.785461 1231.513428,680.023438 1231.513428,678.134399 
	C1234.153564,677.787537 1236.255005,677.511414 1238.582886,677.205566 
	C1239.383179,678.981018 1240.184814,680.600098 1240.855835,682.271484 
	C1259.173218,727.894592 1277.728149,773.425110 1295.614746,819.216614 
	C1300.337891,831.308350 1308.863892,836.388367 1320.721313,836.688782 
	C1326.567261,836.836914 1332.661499,835.590881 1338.295410,833.849731 
	C1348.214355,830.784546 1351.087036,826.165649 1351.087646,815.739258 
	C1351.091064,755.742188 1351.090820,695.745117 1351.083618,635.748047 
	C1351.083374,633.749268 1351.623169,631.441162 1350.819458,629.817871 
	C1349.279297,626.707825 1347.597900,622.787537 1344.844360,621.307434 
	C1331.276489,614.014465 1319.134277,621.463867 1319.115967,637.575439 
M767.090454,761.348022 
	C763.602905,755.540588 760.115417,749.733154 756.532532,743.767029 
	C759.674988,741.988647 762.422241,740.465393 765.139526,738.890503 
	C775.245056,733.033325 782.598999,724.484924 783.178528,712.844421 
	C784.145325,693.425842 783.509277,673.926086 783.452393,654.460693 
	C783.447632,652.843933 782.790588,651.206970 782.311340,649.617126 
	C777.248230,632.819641 760.355164,620.933655 739.892578,620.656494 
	C714.232483,620.308838 688.562805,620.401184 662.900146,620.628784 
	C648.908875,620.752808 644.953186,625.152222 644.951721,639.210571 
	C644.945496,699.872742 644.947998,760.534912 644.953613,821.197083 
	C644.953796,823.029419 644.497925,825.091187 645.175110,826.644714 
	C646.446716,829.561707 647.746338,833.268677 650.182434,834.720703 
	C656.674927,838.590271 663.969360,838.406860 670.797852,835.289978 
	C677.064697,832.429626 676.912354,826.408508 676.910889,820.637939 
	C676.896606,764.975403 676.902405,709.312805 676.902405,653.650269 
	C676.902405,651.871948 676.902405,650.093567 676.902405,647.967163 
	C696.005493,647.967163 714.633484,647.934509 733.261353,647.978577 
	C745.725952,648.008057 751.917358,654.186157 752.023987,666.764587 
	C752.118713,677.929626 752.118164,689.096741 752.023987,700.261780 
	C751.917969,712.831482 745.769165,718.968689 733.260193,719.058044 
	C723.094849,719.130615 712.927734,718.998596 702.762878,719.103638 
	C695.680664,719.176819 691.845154,722.565735 691.177002,729.530945 
	C690.895813,732.462341 691.052612,735.564941 691.708496,738.429810 
	C693.010315,744.115784 695.767822,746.223022 701.565125,746.396912 
	C706.560364,746.546753 711.578186,746.676025 716.557983,746.365417 
	C720.179077,746.139526 722.198608,747.387939 724.056580,750.540955 
	C739.927795,777.474487 755.897522,804.351379 772.122559,831.072449 
	C773.861450,833.936218 777.186401,837.229553 780.171936,837.676758 
	C788.392578,838.907959 794.935425,834.628784 799.933472,828.337036 
	C804.352539,822.774170 801.246643,817.692627 798.247375,812.745728 
	C787.986694,795.822144 777.734863,778.893250 767.090454,761.348022 
M613.031372,796.333557 
	C612.676941,795.225952 612.329590,794.115967 611.967224,793.010986 
	C594.678040,740.296021 577.407410,687.574890 560.074646,634.874268 
	C557.645508,627.488403 553.152161,621.338501 545.044861,620.623291 
	C535.673218,619.796570 526.157471,620.242859 516.722168,620.604492 
	C508.063751,620.936340 503.591339,626.336853 501.026367,634.262695 
	C491.258881,664.444702 481.231049,694.542419 471.327759,724.680542 
	C461.112854,755.766968 450.937622,786.866455 440.723541,817.953125 
	C439.267822,822.383484 438.312469,826.903625 441.834808,830.673279 
	C447.051331,836.256287 453.944763,838.520081 461.309814,837.700073 
	C468.065308,836.947937 470.359406,831.184998 472.227020,825.449463 
	C489.507111,772.382507 506.814941,719.324463 524.127075,666.267944 
	C526.082703,660.274780 528.114685,654.306519 530.454529,647.298645 
	C543.553467,687.295959 556.273071,726.117737 568.980408,764.943542 
	C575.696777,785.464600 582.365845,806.001221 589.108459,826.513672 
	C591.917664,835.060059 596.879883,838.933838 603.802612,837.765259 
	C606.882446,837.245422 609.977234,836.307861 612.827209,835.029358 
	C620.517700,831.579285 622.706299,826.539062 620.185486,818.424805 
	C617.967590,811.285461 615.554443,804.206848 613.031372,796.333557 
M994.923950,818.522949 
	C992.501099,827.101807 994.597961,831.756958 1002.750305,835.253906 
	C1005.321960,836.356995 1008.079102,837.158081 1010.830200,837.686157 
	C1016.879150,838.847168 1021.090698,836.823792 1024.139038,831.320068 
	C1025.333374,829.163574 1026.192017,826.788452 1026.960938,824.433655 
	C1045.669434,767.130493 1064.344360,709.816162 1083.033691,652.506653 
	C1083.449341,651.232239 1083.963989,649.990112 1084.822754,647.685425 
	C1085.826904,650.547913 1086.448853,652.223755 1087.005249,653.921021 
	C1105.938477,711.675171 1124.830933,769.442749 1143.825806,827.176636 
	C1147.207764,837.455750 1153.305786,840.026001 1164.193481,836.289673 
	C1174.547974,832.736206 1177.441284,827.331543 1174.194702,817.288452 
	C1169.188843,801.802795 1164.108521,786.341187 1159.043335,770.874756 
	C1144.157837,725.422852 1129.296997,679.962830 1114.340210,634.534363 
	C1111.969849,627.335144 1107.477417,621.326172 1099.580811,620.660828 
	C1090.045288,619.857544 1080.371948,620.296753 1070.778442,620.689941 
	C1062.603027,621.025024 1058.188721,626.016968 1055.691406,633.642395 
	C1035.586914,695.029114 1015.317261,756.361755 994.923950,818.522949 
M1602.558960,757.076416 
	C1618.641846,738.175781 1634.703491,719.257080 1650.813477,700.379639 
	C1666.490967,682.009094 1682.187012,663.654053 1697.948364,645.355591 
	C1701.184326,641.598816 1703.340820,637.634277 1701.515991,632.641602 
	C1696.196045,618.085571 1681.644775,615.272583 1671.745850,626.878052 
	C1647.642456,655.136658 1623.580933,683.430786 1599.498291,711.706970 
	C1597.212524,714.390930 1594.897461,717.049805 1591.881226,720.549805 
	C1591.881226,710.287720 1591.881348,701.312866 1591.881226,692.338013 
	C1591.881104,672.844543 1591.885742,653.351135 1591.877563,633.857666 
	C1591.875610,629.039978 1591.314941,624.266663 1586.529663,621.758301 
	C1579.630859,618.142151 1572.328369,618.076477 1565.371216,621.382874 
	C1559.115479,624.355835 1559.617065,630.510193 1559.617188,636.212036 
	C1559.617554,683.362854 1559.616699,730.513733 1559.617432,777.664551 
	C1559.617676,792.826111 1559.526245,807.988525 1559.658691,823.148926 
	C1559.739380,832.388062 1563.827393,836.441040 1573.047729,836.990906 
	C1587.158081,837.832520 1591.879761,833.425415 1591.880981,819.410034 
	C1591.881958,808.247131 1592.566162,797.030151 1591.690918,785.936279 
	C1590.794312,774.571960 1593.106567,765.036011 1602.558960,757.076416 
M1399.111206,617.063171 
	C1391.091064,615.089050 1384.002319,617.307068 1378.801758,623.312866 
	C1373.869019,629.009155 1376.736572,635.126038 1379.800415,640.930237 
	C1396.471558,672.511658 1412.691650,704.339417 1429.891846,735.629028 
	C1436.283325,747.255981 1439.445557,758.765564 1438.818237,772.038635 
	C1438.009277,789.155884 1438.617920,806.340393 1438.628662,823.495972 
	C1438.631348,827.763977 1438.985229,832.128235 1442.962036,834.619080 
	C1449.660522,838.814575 1456.962524,838.702454 1464.041260,835.842529 
	C1470.474121,833.243591 1470.561157,827.247620 1470.560059,821.448975 
	C1470.555908,800.129456 1470.497314,778.809509 1470.640137,757.490967 
	C1470.657104,754.954224 1471.315918,752.183105 1472.474121,749.930359 
	C1482.346680,730.728821 1492.403809,711.622253 1502.405273,692.486938 
	C1511.868286,674.381409 1521.403931,656.313171 1530.760132,638.152588 
	C1535.053223,629.819580 1532.797852,623.268738 1524.591919,619.028503 
	C1514.216187,613.666992 1507.508667,615.747986 1502.019409,626.159973 
	C1487.146729,654.370667 1472.316528,682.603760 1457.458740,710.822327 
	C1456.677856,712.305298 1455.796997,713.735535 1454.710205,715.630615 
	C1438.547729,685.259705 1422.847900,655.607788 1406.935303,626.070557 
	C1405.190063,622.830811 1402.223145,620.249207 1399.111206,617.063171 
M397.500397,620.659180 
	C374.516144,620.659729 351.531769,620.619690 328.547638,620.676453 
	C315.210907,620.709351 310.326538,625.724060 310.233704,639.201111 
	C310.231415,639.534180 310.233002,639.867310 310.233002,640.200378 
	C310.232910,700.325745 310.223755,760.451172 310.263397,820.576538 
	C310.265137,823.220703 310.205109,826.053772 311.098572,828.454712 
	C311.966980,830.788452 313.581818,833.510925 315.643677,834.612061 
	C322.490295,838.268738 329.832001,838.270264 336.756592,834.792419 
	C342.724670,831.794861 342.196075,825.851135 342.195160,820.317993 
	C342.185944,764.689514 342.189514,709.061096 342.189514,653.432617 
	C342.189514,651.672852 342.189545,649.913086 342.189545,647.967529 
	C367.848053,647.967529 392.825287,647.986755 417.802429,647.956360 
	C425.728027,647.946716 429.111176,644.906799 429.664490,637.049927 
	C429.848694,634.434448 429.491333,631.719055 428.979309,629.128906 
	C427.840271,623.366882 424.819672,620.816040 418.985626,620.702515 
	C412.159515,620.569580 405.329010,620.663574 397.500397,620.659180 
M859.614075,684.500244 
	C859.614075,675.333923 859.614441,666.167664 859.613953,657.001343 
	C859.613586,649.168274 859.666809,641.334656 859.590515,633.502319 
	C859.545593,628.891724 858.996460,624.247925 854.381226,621.821655 
	C847.484131,618.195862 840.183411,618.076904 833.214417,621.352905 
	C827.005249,624.271667 827.251831,630.387390 827.251526,636.120789 
	C827.248352,697.451904 827.241699,758.783081 827.275818,820.114197 
	C827.277283,822.764404 827.130615,825.611755 828.018127,828.010010 
	C828.938843,830.497925 830.545044,833.456360 832.707703,834.626282 
	C839.532349,838.318054 846.911804,838.227356 853.854980,834.859009 
	C860.077026,831.840515 859.602417,825.679565 859.604553,819.995605 
	C859.621521,775.163879 859.614075,730.332092 859.614075,684.500244 
M974.031860,703.500000 
	C974.031494,680.170715 974.008301,656.841370 974.050415,633.512207 
	C974.058594,628.990845 973.525085,624.541260 969.303040,622.114624 
	C962.364563,618.126770 954.887939,618.051636 947.730103,621.367554 
	C941.706421,624.158142 941.889465,630.016663 941.892883,635.640442 
	C941.926575,691.130798 941.911987,746.621155 941.914490,802.111511 
	C941.914856,809.610046 941.596741,817.131775 942.107727,824.596008 
	C942.317444,827.659546 943.497253,831.642273 945.686523,833.399719 
	C952.242859,838.662781 960.011719,838.135559 967.460510,835.255127 
	C973.694946,832.844177 974.069763,827.231201 974.061401,821.479614 
	C974.004700,782.486511 974.031860,743.493225 974.031860,703.500000 
M1701.415527,794.034790 
	C1687.239258,773.327576 1673.087891,752.603333 1658.870361,731.924561 
	C1655.012817,726.313904 1651.035034,725.195496 1644.663940,727.587952 
	C1633.767822,731.679688 1629.889160,743.074829 1636.207275,752.801392 
	C1639.736694,758.235046 1643.509399,763.510620 1647.175537,768.855286 
	C1660.054321,787.630371 1672.896973,806.430481 1685.844116,825.158264 
	C1688.590088,829.130127 1691.591064,833.264099 1697.196533,832.930420 
	C1710.422974,832.143311 1717.459106,818.078918 1710.255859,806.978577 
	C1707.542725,802.797485 1704.661865,798.725281 1701.415527,794.034790 
M386.865509,701.279785 
	C386.049744,701.437866 385.231323,701.583496 384.418640,701.755981 
	C371.556580,704.486084 363.931152,717.046265 367.359192,729.850464 
	C370.692352,742.300354 384.231567,749.284729 396.560150,744.914124 
	C406.965576,741.225342 412.863647,731.173828 411.156616,720.038818 
	C409.460083,708.972229 400.198700,701.538513 386.865509,701.279785 
M913.514099,742.097900 
	C924.850098,732.733337 926.199524,717.861816 916.605652,708.026428 
	C907.313843,698.500916 892.116455,699.005493 883.476929,709.126404 
	C876.494751,717.305786 876.403320,729.827515 883.265747,738.063232 
	C890.652222,746.927917 902.041016,748.650146 913.514099,742.097900 
M531.991272,791.183594 
	C540.870239,790.277710 546.810242,785.312683 549.593628,777.141235 
	C552.397461,768.909668 550.442444,761.348083 544.008118,755.296265 
	C537.685547,749.349792 530.153259,748.315796 522.242371,751.146790 
	C513.179626,754.389893 507.858002,764.443115 509.596893,774.080688 
	C511.549347,784.902344 519.337402,791.094116 531.991272,791.183594 
M1063.760986,770.494873 
	C1064.450928,783.302490 1072.927856,791.613708 1084.959473,791.278625 
	C1096.222168,790.964966 1104.972534,782.012695 1105.040527,770.734680 
	C1105.107544,759.591736 1096.644653,750.388000 1085.843750,749.857849 
	C1073.433105,749.248718 1064.750366,757.056519 1063.760986,770.494873 
z"/>
<path fill="#FCFCFC" opacity="1.000000" stroke="none" 
	d="
M1319.115967,637.090393 
	C1319.134277,621.463867 1331.276489,614.014465 1344.844360,621.307434 
	C1347.597900,622.787537 1349.279297,626.707825 1350.819458,629.817871 
	C1351.623169,631.441162 1351.083374,633.749268 1351.083618,635.748047 
	C1351.090820,695.745117 1351.091064,755.742188 1351.087646,815.739258 
	C1351.087036,826.165649 1348.214355,830.784546 1338.295410,833.849731 
	C1332.661499,835.590881 1326.567261,836.836914 1320.721313,836.688782 
	C1308.863892,836.388367 1300.337891,831.308350 1295.614746,819.216614 
	C1277.728149,773.425110 1259.173218,727.894592 1240.855835,682.271484 
	C1240.184814,680.600098 1239.383179,678.981018 1238.582886,677.205566 
	C1236.255005,677.511414 1234.153564,677.787537 1231.513428,678.134399 
	C1231.513428,680.023438 1231.513550,681.785461 1231.513550,683.547485 
	C1231.513550,729.045288 1231.517700,774.543091 1231.510986,820.040894 
	C1231.508789,834.904053 1218.190796,842.482361 1205.028564,834.868713 
	C1202.832153,833.598145 1201.063721,830.880432 1200.072632,828.436157 
	C1199.117310,826.080322 1199.209473,823.212769 1199.207642,820.569824 
	C1199.166748,760.906067 1199.174805,701.242310 1199.177612,641.578552 
	C1199.178223,628.091431 1202.400391,623.904846 1215.687866,620.833923 
	C1219.711548,619.903992 1223.902954,619.276855 1228.021240,619.255493 
	C1242.338257,619.181213 1249.805420,624.392212 1255.077148,637.628418 
	C1273.083618,682.839783 1291.149048,728.027954 1308.998291,773.301331 
	C1310.857422,778.017090 1312.867676,780.843567 1319.115967,778.209839 
	C1319.115967,731.714478 1319.115967,684.644958 1319.115967,637.090393 
z"/>
<path fill="#FEFEFE" opacity="1.000000" stroke="none" 
	d="
M767.285034,761.657227 
	C777.734863,778.893250 787.986694,795.822144 798.247375,812.745728 
	C801.246643,817.692627 804.352539,822.774170 799.933472,828.337036 
	C794.935425,834.628784 788.392578,838.907959 780.171936,837.676758 
	C777.186401,837.229553 773.861450,833.936218 772.122559,831.072449 
	C755.897522,804.351379 739.927795,777.474487 724.056580,750.540955 
	C722.198608,747.387939 720.179077,746.139526 716.557983,746.365417 
	C711.578186,746.676025 706.560364,746.546753 701.565125,746.396912 
	C695.767822,746.223022 693.010315,744.115784 691.708496,738.429810 
	C691.052612,735.564941 690.895813,732.462341 691.177002,729.530945 
	C691.845154,722.565735 695.680664,719.176819 702.762878,719.103638 
	C712.927734,718.998596 723.094849,719.130615 733.260193,719.058044 
	C745.769165,718.968689 751.917969,712.831482 752.023987,700.261780 
	C752.118164,689.096741 752.118713,677.929626 752.023987,666.764587 
	C751.917358,654.186157 745.725952,648.008057 733.261353,647.978577 
	C714.633484,647.934509 696.005493,647.967163 676.902405,647.967163 
	C676.902405,650.093567 676.902405,651.871948 676.902405,653.650269 
	C676.902405,709.312805 676.896606,764.975403 676.910889,820.637939 
	C676.912354,826.408508 677.064697,832.429626 670.797852,835.289978 
	C663.969360,838.406860 656.674927,838.590271 650.182434,834.720703 
	C647.746338,833.268677 646.446716,829.561707 645.175110,826.644714 
	C644.497925,825.091187 644.953796,823.029419 644.953613,821.197083 
	C644.947998,760.534912 644.945496,699.872742 644.951721,639.210571 
	C644.953186,625.152222 648.908875,620.752808 662.900146,620.628784 
	C688.562805,620.401184 714.232483,620.308838 739.892578,620.656494 
	C760.355164,620.933655 777.248230,632.819641 782.311340,649.617126 
	C782.790588,651.206970 783.447632,652.843933 783.452393,654.460693 
	C783.509277,673.926086 784.145325,693.425842 783.178528,712.844421 
	C782.598999,724.484924 775.245056,733.033325 765.139526,738.890503 
	C762.422241,740.465393 759.674988,741.988647 756.532532,743.767029 
	C760.115417,749.733154 763.602905,755.540588 767.285034,761.657227 
z"/>
<path fill="#FDFDFD" opacity="1.000000" stroke="none" 
	d="
M613.129456,796.717468 
	C615.554443,804.206848 617.967590,811.285461 620.185486,818.424805 
	C622.706299,826.539062 620.517700,831.579285 612.827209,835.029358 
	C609.977234,836.307861 606.882446,837.245422 603.802612,837.765259 
	C596.879883,838.933838 591.917664,835.060059 589.108459,826.513672 
	C582.365845,806.001221 575.696777,785.464600 568.980408,764.943542 
	C556.273071,726.117737 543.553467,687.295959 530.454529,647.298645 
	C528.114685,654.306519 526.082703,660.274780 524.127075,666.267944 
	C506.814941,719.324463 489.507111,772.382507 472.227020,825.449463 
	C470.359406,831.184998 468.065308,836.947937 461.309814,837.700073 
	C453.944763,838.520081 447.051331,836.256287 441.834808,830.673279 
	C438.312469,826.903625 439.267822,822.383484 440.723541,817.953125 
	C450.937622,786.866455 461.112854,755.766968 471.327759,724.680542 
	C481.231049,694.542419 491.258881,664.444702 501.026367,634.262695 
	C503.591339,626.336853 508.063751,620.936340 516.722168,620.604492 
	C526.157471,620.242859 535.673218,619.796570 545.044861,620.623291 
	C553.152161,621.338501 557.645508,627.488403 560.074646,634.874268 
	C577.407410,687.574890 594.678040,740.296021 611.967224,793.010986 
	C612.329590,794.115967 612.676941,795.225952 613.129456,796.717468 
z"/>
<path fill="#FDFDFD" opacity="1.000000" stroke="none" 
	d="
M995.011047,818.116943 
	C1015.317261,756.361755 1035.586914,695.029114 1055.691406,633.642395 
	C1058.188721,626.016968 1062.603027,621.025024 1070.778442,620.689941 
	C1080.371948,620.296753 1090.045288,619.857544 1099.580811,620.660828 
	C1107.477417,621.326172 1111.969849,627.335144 1114.340210,634.534363 
	C1129.296997,679.962830 1144.157837,725.422852 1159.043335,770.874756 
	C1164.108521,786.341187 1169.188843,801.802795 1174.194702,817.288452 
	C1177.441284,827.331543 1174.547974,832.736206 1164.193481,836.289673 
	C1153.305786,840.026001 1147.207764,837.455750 1143.825806,827.176636 
	C1124.830933,769.442749 1105.938477,711.675171 1087.005249,653.921021 
	C1086.448853,652.223755 1085.826904,650.547913 1084.822754,647.685425 
	C1083.963989,649.990112 1083.449341,651.232239 1083.033691,652.506653 
	C1064.344360,709.816162 1045.669434,767.130493 1026.960938,824.433655 
	C1026.192017,826.788452 1025.333374,829.163574 1024.139038,831.320068 
	C1021.090698,836.823792 1016.879150,838.847168 1010.830200,837.686157 
	C1008.079102,837.158081 1005.321960,836.356995 1002.750305,835.253906 
	C994.597961,831.756958 992.501099,827.101807 995.011047,818.116943 
z"/>
<path fill="#FDFDFD" opacity="1.000000" stroke="none" 
	d="
M1602.323975,757.343872 
	C1593.106567,765.036011 1590.794312,774.571960 1591.690918,785.936279 
	C1592.566162,797.030151 1591.881958,808.247131 1591.880981,819.410034 
	C1591.879761,833.425415 1587.158081,837.832520 1573.047729,836.990906 
	C1563.827393,836.441040 1559.739380,832.388062 1559.658691,823.148926 
	C1559.526245,807.988525 1559.617676,792.826111 1559.617432,777.664551 
	C1559.616699,730.513733 1559.617554,683.362854 1559.617188,636.212036 
	C1559.617065,630.510193 1559.115479,624.355835 1565.371216,621.382874 
	C1572.328369,618.076477 1579.630859,618.142151 1586.529663,621.758301 
	C1591.314941,624.266663 1591.875610,629.039978 1591.877563,633.857666 
	C1591.885742,653.351135 1591.881104,672.844543 1591.881226,692.338013 
	C1591.881348,701.312866 1591.881226,710.287720 1591.881226,720.549805 
	C1594.897461,717.049805 1597.212524,714.390930 1599.498291,711.706970 
	C1623.580933,683.430786 1647.642456,655.136658 1671.745850,626.878052 
	C1681.644775,615.272583 1696.196045,618.085571 1701.515991,632.641602 
	C1703.340820,637.634277 1701.184326,641.598816 1697.948364,645.355591 
	C1682.187012,663.654053 1666.490967,682.009094 1650.813477,700.379639 
	C1634.703491,719.257080 1618.641846,738.175781 1602.323975,757.343872 
z"/>
<path fill="#FDFDFD" opacity="1.000000" stroke="none" 
	d="
M1399.467041,617.212769 
	C1402.223145,620.249207 1405.190063,622.830811 1406.935303,626.070557 
	C1422.847900,655.607788 1438.547729,685.259705 1454.710205,715.630615 
	C1455.796997,713.735535 1456.677856,712.305298 1457.458740,710.822327 
	C1472.316528,682.603760 1487.146729,654.370667 1502.019409,626.159973 
	C1507.508667,615.747986 1514.216187,613.666992 1524.591919,619.028503 
	C1532.797852,623.268738 1535.053223,629.819580 1530.760132,638.152588 
	C1521.403931,656.313171 1511.868286,674.381409 1502.405273,692.486938 
	C1492.403809,711.622253 1482.346680,730.728821 1472.474121,749.930359 
	C1471.315918,752.183105 1470.657104,754.954224 1470.640137,757.490967 
	C1470.497314,778.809509 1470.555908,800.129456 1470.560059,821.448975 
	C1470.561157,827.247620 1470.474121,833.243591 1464.041260,835.842529 
	C1456.962524,838.702454 1449.660522,838.814575 1442.962036,834.619080 
	C1438.985229,832.128235 1438.631348,827.763977 1438.628662,823.495972 
	C1438.617920,806.340393 1438.009277,789.155884 1438.818237,772.038635 
	C1439.445557,758.765564 1436.283325,747.255981 1429.891846,735.629028 
	C1412.691650,704.339417 1396.471558,672.511658 1379.800415,640.930237 
	C1376.736572,635.126038 1373.869019,629.009155 1378.801758,623.312866 
	C1384.002319,617.307068 1391.091064,615.089050 1399.467041,617.212769 
z"/>
<path fill="#FDFDFD" opacity="1.000000" stroke="none" 
	d="
M398.000397,620.659180 
	C405.329010,620.663574 412.159515,620.569580 418.985626,620.702515 
	C424.819672,620.816040 427.840271,623.366882 428.979309,629.128906 
	C429.491333,631.719055 429.848694,634.434448 429.664490,637.049927 
	C429.111176,644.906799 425.728027,647.946716 417.802429,647.956360 
	C392.825287,647.986755 367.848053,647.967529 342.189545,647.967529 
	C342.189545,649.913086 342.189514,651.672852 342.189514,653.432617 
	C342.189514,709.061096 342.185944,764.689514 342.195160,820.317993 
	C342.196075,825.851135 342.724670,831.794861 336.756592,834.792419 
	C329.832001,838.270264 322.490295,838.268738 315.643677,834.612061 
	C313.581818,833.510925 311.966980,830.788452 311.098572,828.454712 
	C310.205109,826.053772 310.265137,823.220703 310.263397,820.576538 
	C310.223755,760.451172 310.232910,700.325745 310.233002,640.200378 
	C310.233002,639.867310 310.231415,639.534180 310.233704,639.201111 
	C310.326538,625.724060 315.210907,620.709351 328.547638,620.676453 
	C351.531769,620.619690 374.516144,620.659729 398.000397,620.659180 
z"/>
<path fill="#F9F9F9" opacity="1.000000" stroke="none" 
	d="
M859.614075,685.000305 
	C859.614075,730.332092 859.621521,775.163879 859.604553,819.995605 
	C859.602417,825.679565 860.077026,831.840515 853.854980,834.859009 
	C846.911804,838.227356 839.532349,838.318054 832.707703,834.626282 
	C830.545044,833.456360 828.938843,830.497925 828.018127,828.010010 
	C827.130615,825.611755 827.277283,822.764404 827.275818,820.114197 
	C827.241699,758.783081 827.248352,697.451904 827.251526,636.120789 
	C827.251831,630.387390 827.005249,624.271667 833.214417,621.352905 
	C840.183411,618.076904 847.484131,618.195862 854.381226,621.821655 
	C858.996460,624.247925 859.545593,628.891724 859.590515,633.502319 
	C859.666809,641.334656 859.613586,649.168274 859.613953,657.001343 
	C859.614441,666.167664 859.614075,675.333923 859.614075,685.000305 
z"/>
<path fill="#FFFFFF" opacity="1.000000" stroke="none" 
	d="
M974.031860,704.000000 
	C974.031860,743.493225 974.004700,782.486511 974.061401,821.479614 
	C974.069763,827.231201 973.694946,832.844177 967.460510,835.255127 
	C960.011719,838.135559 952.242859,838.662781 945.686523,833.399719 
	C943.497253,831.642273 942.317444,827.659546 942.107727,824.596008 
	C941.596741,817.131775 941.914856,809.610046 941.914490,802.111511 
	C941.911987,746.621155 941.926575,691.130798 941.892883,635.640442 
	C941.889465,630.016663 941.706421,624.158142 947.730103,621.367554 
	C954.887939,618.051636 962.364563,618.126770 969.303040,622.114624 
	C973.525085,624.541260 974.058594,628.990845 974.050415,633.512207 
	C974.008301,656.841370 974.031494,680.170715 974.031860,704.000000 
z"/>
<path fill="#FDFDFD" opacity="1.000000" stroke="none" 
	d="
M1701.636475,794.319092 
	C1704.661865,798.725281 1707.542725,802.797485 1710.255859,806.978577 
	C1717.459106,818.078918 1710.422974,832.143311 1697.196533,832.930420 
	C1691.591064,833.264099 1688.590088,829.130127 1685.844116,825.158264 
	C1672.896973,806.430481 1660.054321,787.630371 1647.175537,768.855286 
	C1643.509399,763.510620 1639.736694,758.235046 1636.207275,752.801392 
	C1629.889160,743.074829 1633.767822,731.679688 1644.663940,727.587952 
	C1651.035034,725.195496 1655.012817,726.313904 1658.870361,731.924561 
	C1673.087891,752.603333 1687.239258,773.327576 1701.636475,794.319092 
z"/>
<path fill="#FCFCFC" opacity="1.000000" stroke="none" 
	d="
M387.292114,701.253052 
	C400.198700,701.538513 409.460083,708.972229 411.156616,720.038818 
	C412.863647,731.173828 406.965576,741.225342 396.560150,744.914124 
	C384.231567,749.284729 370.692352,742.300354 367.359192,729.850464 
	C363.931152,717.046265 371.556580,704.486084 384.418640,701.755981 
	C385.231323,701.583496 386.049744,701.437866 387.292114,701.253052 
z"/>
<path fill="#FCFCFC" opacity="1.000000" stroke="none" 
	d="
M913.226318,742.324097 
	C902.041016,748.650146 890.652222,746.927917 883.265747,738.063232 
	C876.403320,729.827515 876.494751,717.305786 883.476929,709.126404 
	C892.116455,699.005493 907.313843,698.500916 916.605652,708.026428 
	C926.199524,717.861816 924.850098,732.733337 913.226318,742.324097 
z"/>
<path fill="#FCFCFC" opacity="1.000000" stroke="none" 
	d="
M531.590576,791.215698 
	C519.337402,791.094116 511.549347,784.902344 509.596893,774.080688 
	C507.858002,764.443115 513.179626,754.389893 522.242371,751.146790 
	C530.153259,748.315796 537.685547,749.349792 544.008118,755.296265 
	C550.442444,761.348083 552.397461,768.909668 549.593628,777.141235 
	C546.810242,785.312683 540.870239,790.277710 531.590576,791.215698 
z"/>
<path fill="#FCFCFC" opacity="1.000000" stroke="none" 
	d="
M1063.771973,770.095337 
	C1064.750366,757.056519 1073.433105,749.248718 1085.843750,749.857849 
	C1096.644653,750.388000 1105.107544,759.591736 1105.040527,770.734680 
	C1104.972534,782.012695 1096.222168,790.964966 1084.959473,791.278625 
	C1072.927856,791.613708 1064.450928,783.302490 1063.771973,770.095337 
z"/>
</svg>